<?xml version="1.0"?>
<svg xmlns="http://www.w3.org/2000/svg" id="Layer_1" data-name="Layer 1" viewBox="0 0 512 512" width="512" height="512"><title>Mobile Password</title><path d="M400,60a48,48,0,0,0-48-48H160a48,48,0,0,0-48,48V451a48,48,0,0,0,48,48H352a48,48,0,0,0,48-48ZM128,107H384V389H128Zm31.858-79H352.142C369.787,28,384,42.724,384,60.369V91H128V60.369C128,42.724,142.213,28,159.858,28ZM352.142,484H159.858C142.213,484,128,469.276,128,451.631V405H384v46.631C384,469.276,369.787,484,352.142,484Z"/><path d="M221.964,65h68.072a8,8,0,0,0,0-16H221.964a8,8,0,0,0,0,16Z"/><path d="M256,415.56a28.945,28.945,0,1,0,28.945,28.945A28.978,28.978,0,0,0,256,415.56Zm0,41.89a12.945,12.945,0,1,1,12.945-12.945A12.96,12.96,0,0,1,256,457.45Z"/><path d="M300.212,238H296v-9.426a40.409,40.409,0,0,0-11.922-28.985,39.021,39.021,0,0,0-28.022-11.537c-22.179,0-40.056,18.178-40.056,40.522V238h-4.212c-4.418,0-7.788,3.091-7.788,7.51v70.439A7.866,7.866,0,0,0,211.788,324h88.424A7.866,7.866,0,0,0,308,315.949V245.51C308,241.091,304.63,238,300.212,238ZM232,228.574a24.321,24.321,0,0,1,24.178-24.522,23.043,23.043,0,0,1,16.69,6.9A24.472,24.472,0,0,1,280,228.574V238H232ZM292,308H220V254h72Z"/><path d="M255,298.471a8,8,0,0,0,8-8V279.98a8,8,0,0,0-16,0v10.491A8,8,0,0,0,255,298.471Z"/><path d="M256,144.6A111.4,111.4,0,1,0,367.4,256,111.526,111.526,0,0,0,256,144.6Zm0,206.8A95.4,95.4,0,1,1,351.4,256,95.507,95.507,0,0,1,256,351.4Z"/></svg>
